<svg width="18" height="12" viewBox="0 0 18 12" fill="none" xmlns="http://www.w3.org/2000/svg">
<path d="M16.7709 5.24993C17.1851 5.24993 17.5209 5.58572 17.5209 5.99993C17.5209 6.41414 17.1851 6.74993 16.7709 6.74993L16.7709 5.24993ZM4.27684 0.481355C4.57104 0.189771 5.04591 0.19189 5.33749 0.486087C5.62908 0.780284 5.62696 1.25515 5.33276 1.54674L4.27684 0.481355ZM3.04681 2.75642L3.57477 3.28911L3.04681 2.75642ZM3.04681 9.24344L2.51885 9.77613L3.04681 9.24344ZM5.33276 10.4531C5.62696 10.7447 5.62908 11.2196 5.3375 11.5138C5.04591 11.808 4.57104 11.8101 4.27685 11.5185L5.33276 10.4531ZM0.835928 5.68748L0.091947 5.59265L0.0919473 5.59265L0.835928 5.68748ZM0.83593 6.31238L0.0919491 6.40721L0.0919488 6.40721L0.83593 6.31238ZM0.847375 5.99993L0.753792 5.25579L0.8004 5.24993L0.847375 5.24993L0.847375 5.99993ZM0.816099 6.00386L0.0660998 6.00506L0.0660998 6.00506L0.816099 6.00386ZM4.8048 1.01405L5.33276 1.54674L3.57477 3.28911L3.04681 2.75642L2.51885 2.22373L4.27684 0.481355L4.8048 1.01405ZM3.04681 9.24344L3.57477 8.71075L5.33276 10.4531L4.8048 10.9858L4.27685 11.5185L2.51885 9.77613L3.04681 9.24344ZM3.04681 2.75642L3.57477 3.28911C2.86126 3.99628 2.37195 4.48285 2.04088 4.89509C1.71931 5.29551 1.60921 5.55243 1.57991 5.78231L0.835928 5.68748L0.0919473 5.59265C0.17058 4.97574 0.46494 4.46189 0.871339 3.95585C1.26824 3.46164 1.8304 2.90607 2.51885 2.22373L3.04681 2.75642ZM3.04681 9.24344L2.51885 9.77613C1.8304 9.09379 1.26824 8.53822 0.87134 8.04401C0.464942 7.53797 0.170582 7.02412 0.0919491 6.40721L0.83593 6.31238L1.57991 6.21755C1.60921 6.44743 1.71931 6.70435 2.04088 7.10477C2.37195 7.51701 2.86126 8.00358 3.57477 8.71075L3.04681 9.24344ZM16.7709 5.99993L16.7709 6.74993L0.847375 6.74993L0.847375 5.99993L0.847375 5.24993L16.7709 5.24993L16.7709 5.99993ZM0.835928 5.68748L1.57991 5.78231C1.57058 5.85547 1.56598 5.92907 1.5661 6.00267L0.816099 6.00386L0.0660998 6.00506C0.0658804 5.86732 0.0744959 5.72957 0.091947 5.59265L0.835928 5.68748ZM0.816099 6.00386L1.5661 6.00267C1.56621 6.07443 1.57082 6.1462 1.57991 6.21755L0.83593 6.31238L0.0919488 6.40721C0.0749312 6.27369 0.066314 6.13938 0.0660998 6.00506L0.816099 6.00386ZM0.847375 5.99993L0.940958 6.74407L0.909682 6.748L0.816099 6.00386L0.722516 5.25972L0.753792 5.25579L0.847375 5.99993Z" fill="white"/>
</svg>
