<svg width="16" height="24" viewBox="0 0 16 24" fill="none" xmlns="http://www.w3.org/2000/svg">
<path d="M8 4C6.94943 4 5.90914 4.20693 4.93853 4.60896C3.96793 5.011 3.08601 5.60028 2.34315 6.34315C0.842855 7.84344 0 9.87827 0 12C0 14.1217 0.842855 16.1566 2.34315 17.6569C3.08601 18.3997 3.96793 18.989 4.93853 19.391C5.90914 19.7931 6.94943 20 8 20C10.1217 20 12.1566 19.1571 13.6569 17.6569C15.1571 16.1566 16 14.1217 16 12C16 10.9494 15.7931 9.90914 15.391 8.93853C14.989 7.96793 14.3997 7.08601 13.6569 6.34315C12.914 5.60028 12.0321 5.011 11.0615 4.60896C10.0909 4.20693 9.05058 4 8 4ZM11.36 15.36L7.2 12.8V8H8.4V12.16L12 14.32L11.36 15.36Z" fill="#A83AFD"/>
</svg>
