<svg width="16" height="16" viewBox="0 0 16 16" fill="none" xmlns="http://www.w3.org/2000/svg">
<path d="M6.50007 13.9C7.68674 13.4333 7.42674 12.1466 6.82674 11.3333C6.23341 10.5 5.41341 9.92665 4.58674 9.37331C4.00007 8.99998 3.46007 8.53331 3.02674 7.99998C2.84007 7.77998 2.46007 7.37331 2.84674 7.29331C3.24007 7.21331 3.92007 7.59998 4.26674 7.74665C4.87341 7.99998 5.47341 8.29331 6.03341 8.63998L6.70674 7.50665C5.66674 6.81998 4.33341 6.21331 3.09341 6.03331C2.38674 5.92665 1.64007 6.07331 1.40007 6.83998C1.18674 7.49998 1.52674 8.16665 1.91341 8.68665C2.82674 9.90665 4.24674 10.4933 5.30674 11.5466C5.53341 11.7666 5.80674 12.0266 5.94007 12.3333C6.08007 12.6266 6.04674 12.6466 5.73341 12.6466C4.90674 12.6466 3.87341 12 3.20007 11.5733L2.52674 12.7066C3.54674 13.3333 5.25341 14.3133 6.50007 13.9ZM13.8934 3.49998C14.0401 3.35331 14.0401 3.11331 13.8934 2.97331L13.0267 2.10665C12.8867 1.96665 12.6467 1.96665 12.5067 2.10665L11.8267 2.78665L13.2134 4.17331M7.33341 7.27998V8.66665H8.72007L12.8201 4.56665L11.4334 3.17998L7.33341 7.27998Z" fill="black"/>
</svg>
