<svg width="16" height="16" viewBox="0 0 16 16" fill="none" xmlns="http://www.w3.org/2000/svg">
<path d="M4.66669 12.6666L8.00002 9.33331L9.25335 10.5866C8.88669 11.1933 8.66669 11.9066 8.66669 12.6666H4.66669ZM6.66669 6.99998C6.66669 6.44665 6.22002 5.99998 5.66669 5.99998C5.11335 5.99998 4.66669 6.44665 4.66669 6.99998C4.66669 7.55331 5.11335 7.99998 5.66669 7.99998C6.22002 7.99998 6.66669 7.55331 6.66669 6.99998ZM8.72669 13.3333H4.00002V2.66665H8.66669V5.99998H12V8.72665C12.22 8.69331 12.44 8.66665 12.6667 8.66665C12.8934 8.66665 13.1134 8.69331 13.3334 8.72665V5.33331L9.33335 1.33331H4.00002C3.26002 1.33331 2.66669 1.93331 2.66669 2.66665V13.3333C2.66669 14.0733 3.26002 14.6666 4.00002 14.6666H9.20669C8.97335 14.26 8.80669 13.8133 8.72669 13.3333ZM12 9.99998V12H10V13.3333H12V15.3333H13.3334V13.3333H15.3334V12H13.3334V9.99998H12Z" fill="black"/>
</svg>
