<svg width="16" height="16" viewBox="0 0 16 16" fill="none" xmlns="http://www.w3.org/2000/svg">
<path d="M12.3334 2.66669L13.1067 5.56669L12.4667 5.74002C12.1667 5.16002 11.8601 4.58002 11.5067 4.28669C11.1534 4.00002 10.7401 4.00002 10.3334 4.00002H8.66674V11C8.66674 11.3334 8.66674 11.6667 8.88674 11.8334C9.1134 12 9.5534 12 10.0001 12V12.6667H6.00007V12C6.44674 12 6.88674 12 7.1134 11.8334C7.3334 11.6667 7.3334 11.3334 7.3334 11V4.00002H5.66674C5.26007 4.00002 4.84674 4.00002 4.4934 4.28669C4.14007 4.58002 3.8334 5.16002 3.5334 5.74002L2.8934 5.56669L3.66674 2.66669H12.3334Z" fill="black"/>
</svg>
