<svg width="16" height="16" viewBox="0 0 16 16" fill="none" xmlns="http://www.w3.org/2000/svg">
<path d="M7.06674 8.93331C7.16303 9.0617 7.20977 9.2205 7.1984 9.38057C7.18702 9.54065 7.11828 9.69124 7.00481 9.80472C6.89134 9.91819 6.74074 9.98693 6.58066 9.9983C6.42059 10.0097 6.26179 9.96293 6.13341 9.86665C5.81453 9.56738 5.56039 9.20593 5.38665 8.80461C5.21292 8.40329 5.12328 7.97062 5.12328 7.53331C5.12328 7.096 5.21292 6.66333 5.38665 6.26202C5.56039 5.8607 5.81453 5.49925 6.13341 5.19998L8.46674 2.79998C9.10107 2.18499 9.94989 1.84106 10.8334 1.84106C11.7169 1.84106 12.5657 2.18499 13.2001 2.79998C13.8151 3.43431 14.159 4.28313 14.159 5.16665C14.159 6.05016 13.8151 6.89898 13.2001 7.53331L12.2001 8.53331C12.2143 7.98784 12.1238 7.44469 11.9334 6.93331L12.2667 6.59998C12.6228 6.2075 12.82 5.69656 12.82 5.16665C12.82 4.63674 12.6228 4.1258 12.2667 3.73331C11.8743 3.37728 11.3633 3.18007 10.8334 3.18007C10.3035 3.18007 9.79256 3.37728 9.40007 3.73331L7.06674 6.13331C6.87714 6.31388 6.7262 6.53108 6.62306 6.77174C6.51992 7.01239 6.46674 7.27149 6.46674 7.53331C6.46674 7.79514 6.51992 8.05424 6.62306 8.29489C6.7262 8.53555 6.87714 8.75274 7.06674 8.93331ZM15.3334 12V13.3333H13.3334V15.3333H12.0001V13.3333H10.0001V12H12.0001V9.99998H13.3334V12M10.8001 9.13331C10.9156 8.59521 10.8904 8.03641 10.7269 7.51088C10.5634 6.98536 10.2672 6.51089 9.86674 6.13331C9.73836 6.03703 9.57955 5.99028 9.41948 6.00166C9.25941 6.01303 9.10881 6.08177 8.99533 6.19524C8.88186 6.30872 8.81313 6.45931 8.80175 6.61939C8.79037 6.77946 8.83712 6.93827 8.9334 7.06665C9.123 7.24722 9.27395 7.46442 9.37709 7.70507C9.48022 7.94573 9.53341 8.20482 9.53341 8.46665C9.53341 8.72847 9.48022 8.98757 9.37709 9.22822C9.27395 9.46888 9.123 9.68608 8.9334 9.86665L6.60007 12.2666C6.20759 12.6227 5.69665 12.8199 5.16674 12.8199C4.63683 12.8199 4.12589 12.6227 3.73341 12.2666C3.37737 11.8742 3.18016 11.3632 3.18016 10.8333C3.18016 10.3034 3.37737 9.79246 3.73341 9.39998L4.06674 9.13331C3.88145 8.59753 3.79121 8.03349 3.80007 7.46665L2.80007 8.46665C2.18508 9.10098 1.84116 9.9498 1.84116 10.8333C1.84116 11.7168 2.18508 12.5656 2.80007 13.2C3.43441 13.815 4.28322 14.1589 5.16674 14.1589C6.05025 14.1589 6.89907 13.815 7.53341 13.2L8.73341 12C8.83531 11.3958 9.07466 10.8231 9.43299 10.326C9.79132 9.829 10.259 9.42093 10.8001 9.13331Z" fill="black"/>
</svg>
