<svg width="16" height="16" viewBox="0 0 16 16" fill="none" xmlns="http://www.w3.org/2000/svg">
<path d="M11.3333 1.33331H12.6667V3.33331H14.6667V4.66665H12.6667V6.66665H11.3333V4.66665H9.33333V3.33331H11.3333V1.33331ZM4.66667 3.33331H7.33333V4.66665H4.66667C3.93333 4.66665 3.33333 5.26665 3.33333 5.99998V11.3333C3.33333 12.0733 3.93333 12.6666 4.66667 12.6666H10C10.74 12.6666 11.3333 12.0733 11.3333 11.3333V8.66665H12.6667V11.3333C12.6667 12.8066 11.4733 14 10 14H4.66667C3.19333 14 2 12.8066 2 11.3333V5.99998C2 4.52665 3.19333 3.33331 4.66667 3.33331Z" fill="black"/>
</svg>
