<svg width="18" height="16" viewBox="0 0 18 16" fill="none" xmlns="http://www.w3.org/2000/svg">
<g clip-path="url(#clip0_10129_107)">
<path d="M9.40116 0.268747L11.5324 5.29179L16.9378 5.77989C17.1764 5.80064 17.3529 6.01213 17.3321 6.25216C17.3222 6.36917 17.2672 6.47116 17.1858 6.54284L17.1861 6.54297L13.0967 10.1375L14.3061 15.4651C14.3597 15.7004 14.2135 15.9347 13.9798 15.9886C13.86 16.0163 13.7407 15.991 13.6453 15.9284L9.00049 13.1331L4.3409 15.9374C4.13527 16.0611 3.86889 15.9936 3.74587 15.7866C3.68605 15.6862 3.67127 15.5709 3.69527 15.4651H3.69487L4.90446 10.1375L0.81507 6.54311C0.634811 6.38432 0.616636 6.10852 0.774244 5.92707C0.854404 5.83478 0.964811 5.78481 1.07739 5.77866L6.4686 5.29179L8.60091 0.266016C8.69477 0.0438772 8.94976 -0.0594781 9.17044 0.0350025C9.27895 0.0814236 9.35897 0.167166 9.40116 0.268747ZM10.8351 5.87396L9.00049 1.5497L7.16576 5.87396L7.16522 5.87383C7.10445 6.01732 6.96895 6.12313 6.80375 6.13761L2.15067 6.55785L5.65262 9.63599C5.78134 9.73702 5.84766 9.90741 5.80887 10.0784L4.76801 14.6628L8.77005 12.2543C8.90378 12.17 9.07848 12.1625 9.22334 12.2498L13.2331 14.6628L12.1924 10.0784L12.1928 10.0781C12.1586 9.92666 12.2058 9.76159 12.3301 9.65223L15.8505 6.55785L11.2214 6.13979C11.0575 6.1346 10.9036 6.03575 10.8351 5.87396Z" fill="#A83AFD"/>
<path d="M10.8351 5.87396L9.00049 1.5497L7.16576 5.87396L7.16522 5.87383C7.10445 6.01732 6.96895 6.12313 6.80375 6.13761L2.15067 6.55785L5.65262 9.63599C5.78134 9.73702 5.84766 9.90741 5.80887 10.0784L4.76801 14.6628L8.77005 12.2543C8.90378 12.17 9.07848 12.1625 9.22334 12.2498L13.2331 14.6628L12.1924 10.0784L12.1928 10.0781C12.1586 9.92666 12.2058 9.76159 12.3301 9.65223L15.8505 6.55785L11.2214 6.13979C11.0575 6.1346 10.9036 6.03575 10.8351 5.87396Z" fill="#A83AFD"/>
</g>
<defs>
<clipPath id="clip0_10129_107">
<rect width="16.6667" height="16" fill="white" transform="translate(0.666992)"/>
</clipPath>
</defs>
</svg>
