<svg width="184" height="146" viewBox="0 0 184 146" fill="none" xmlns="http://www.w3.org/2000/svg">
<g clip-path="url(#clip0_10050_3541)">
<path opacity="0.8" d="M52.2028 0.625015C52.2028 0.905357 52.0618 1.59348 51.8822 2.15418C51.4974 3.35203 50.5226 4.75377 49.0733 6.18098C47.9575 7.26414 46.6236 8.78057 46.072 9.5579C45.4949 10.3989 45.2384 11.4184 45.2768 12.7946C45.3666 15.8912 45.3794 15.7893 44.8664 16.8214C44.2123 18.1722 43.9686 18.4526 42.4551 19.6377C39.2743 22.1226 35.3752 25.8818 33.1563 28.6088C31.6685 30.431 31.7583 30.3673 31.8609 29.6919C31.9892 28.8509 32.4509 27.9716 33.3359 26.8885C34.875 25.0152 35.5163 23.0783 35.2726 21.0521C34.9648 18.5672 34.1696 15.8402 32.515 11.584C32.002 10.2715 31.707 9.80002 32.0148 10.7812C32.1174 11.1253 32.2457 11.8899 32.2842 12.4888C32.3483 13.4063 32.297 13.7631 32.0148 14.8463C31.8224 15.5471 31.4505 16.694 31.1811 17.3949C30.5142 19.0897 29.9242 20.9247 29.7831 21.7912C29.5651 22.9763 29.937 24.5565 30.7451 25.8563C31.5531 27.1943 31.7327 28.3921 31.3607 30.1379C31.194 30.9153 31.0016 31.2593 29.7703 33.0688C27.4488 36.4712 25.4864 40.052 23.9858 43.6838C23.3188 45.264 23.3573 45.2512 22.7545 44.0916L22.3825 43.3907V40.651C22.3825 37.9749 22.3697 37.8857 22.0234 36.8918C21.8182 36.3311 21.5489 35.6939 21.4078 35.4645C21.0871 34.9548 19.548 33.5276 18.5348 32.814C17.7011 32.2151 12.0192 29.3096 11.6985 29.3096C11.5831 29.3096 11.814 29.5263 12.1859 29.7811C13.6994 30.8516 14.3407 32.1259 15.2 35.8086C15.4309 36.828 15.8413 38.3062 16.0978 39.1091C16.5211 40.3834 16.6365 40.6255 17.1752 41.1607C17.7652 41.7469 18.9965 42.435 19.4711 42.435C20.138 42.435 21.023 42.8428 21.5232 43.378C22.126 44.0406 22.3312 44.3847 22.6904 45.4678L22.9597 46.2834L22.5621 47.443C20.5484 53.5087 19.625 59.1029 19.5737 65.3598C19.5737 66.9017 19.5224 68.125 19.4839 68.0995C19.2402 67.9593 18.8041 66.685 18.4578 65.0794C18.2398 64.0855 17.9191 62.8621 17.7396 62.3779C17.342 61.2947 16.3928 59.6509 15.79 59.0392C15.277 58.5167 13.3531 57.2297 12.3142 56.7072C11.0059 56.0701 4.61864 53.9292 4.61864 54.1459C4.61864 54.1841 4.96494 54.3752 5.37536 54.5664C7.01708 55.331 8.2099 56.8984 10.044 60.7085C11.3266 63.3591 12.4296 65.2068 13.0324 65.7421C13.9174 66.5194 14.8922 66.9144 16.1491 67.0291C17.4959 67.131 18.0859 67.4114 18.9324 68.3416L19.5737 69.0298L19.7276 70.9795C20.2663 77.4274 21.7028 83.3402 24.191 89.2912C24.5886 90.2597 25.0247 91.2664 25.1658 91.5213C25.294 91.7889 25.3453 92.0055 25.2812 92.0055C25.2043 92.0055 24.781 91.6487 24.3321 91.2027C23.7421 90.642 23.2034 89.9029 22.4467 88.6541C21.8695 87.6856 21.0615 86.4623 20.6382 85.9398C19.7661 84.8566 17.9833 83.3784 16.8674 82.8305C16.1235 82.4609 13.0453 81.5817 11.5703 81.3013C10.4031 81.0847 3.82343 80.6642 1.86106 80.6769L0.0654297 80.6897L1.41215 80.97C2.15606 81.1229 3.19496 81.4288 3.72082 81.6581C4.97776 82.1933 7.01708 83.7862 9.46684 86.1564C12.6605 89.253 14.5716 90.7439 15.8413 91.1517C17.5087 91.6742 18.6502 91.7379 20.3817 91.4193C21.7413 91.1645 22.5749 91.3046 24.0499 92.0055C25.5377 92.7191 25.9097 93.0887 26.7562 94.6433C29.424 99.6386 32.7202 104.086 36.8502 108.278L38.5047 109.96L37.7095 109.769C36.0165 109.374 35.2598 108.941 33.2333 107.182C30.604 104.901 29.4112 104.162 27.1538 103.398C25.9738 103.003 25.4864 102.914 24.4347 102.863C23.1136 102.812 20.1637 103.143 18.2141 103.551C16.0465 104.022 4.87515 108.113 4.87515 108.444C4.87515 108.495 5.20863 108.444 5.61906 108.317C6.79904 107.947 8.38946 107.769 9.67205 107.845C11.2496 107.947 14.315 108.954 17.3035 110.356C19.5352 111.4 23.0238 112.751 24.3834 113.095C25.7814 113.465 27.8464 113.274 29.5266 112.649C29.9242 112.509 30.8477 111.999 31.5916 111.515C32.3483 111.031 33.2205 110.572 33.5411 110.496C35.1059 110.101 36.8245 110.215 38.7484 110.814C39.6206 111.082 39.9156 111.273 41.4034 112.496C44.9305 115.402 48.6244 117.823 52.4465 119.773C54.2806 120.703 57.8591 122.334 58.0515 122.334C58.0771 122.334 58.1028 122.003 58.1028 121.582C58.1028 120.856 58.0899 120.83 57.6923 120.665C54.2806 119.314 49.7659 116.854 46.3414 114.484C45.4436 113.86 43.0451 112.063 42.5962 111.681C42.4423 111.541 42.2114 109.833 42.1986 108.763C42.1986 106.762 42.4551 106.048 43.789 104.315C45.1742 102.519 45.8797 100.378 45.7514 98.3388C45.6744 96.8734 44.6997 93.6621 43.2888 90.1832C42.3653 87.8895 41.5701 85.2899 41.2751 83.5823C41.0315 82.1551 41.4034 79.683 42.1345 77.9626C42.1858 77.8352 42.173 77.7333 42.1088 77.7333C41.7625 77.7333 36.8374 88.9727 36.3243 90.9223C35.8626 92.6554 35.2726 96.0705 35.2726 96.9753C35.2726 98.033 35.8498 100.39 36.4013 101.601C37.0041 102.914 37.5813 103.793 39.1332 105.793C39.9156 106.787 40.6595 107.807 40.7878 108.062C41.0956 108.673 41.583 110.292 41.5317 110.547C41.4804 110.827 38.7228 108.291 36.7219 106.125C33.2846 102.391 30.2961 98.2623 28.2568 94.4267L27.6155 93.2161L27.7181 92.082C27.8849 90.2979 28.4364 88.858 29.3342 87.7875C29.5266 87.5709 30.0909 87.1249 30.5911 86.8191C31.6942 86.1182 32.3098 85.5448 33.0281 84.5508C34.3876 82.6521 34.5031 82.0787 34.5672 76.459C34.6313 71.9862 34.7852 69.7689 35.1059 68.8131C35.465 67.7427 36.1576 66.4557 36.7989 65.6529C37.158 65.2196 37.4017 64.8628 37.3504 64.8628C37.0939 64.8628 30.6168 71.6039 29.3342 73.1967C28.6544 74.076 26.6151 77.4912 26.3073 78.294C26.0508 78.9821 25.7814 80.8044 25.7814 81.8875C25.7814 82.9324 26.1149 84.5636 26.7434 86.5642C27.2564 88.2336 27.3205 88.5394 27.3077 89.6098C27.3077 90.2597 27.2308 91.0753 27.141 91.4321L26.9871 92.0692L26.6921 91.4321C24.9221 87.6346 23.7934 84.5381 22.7802 80.6642C21.7797 76.7903 21.0358 71.5529 21.0358 68.1887C21.0358 66.9272 21.0615 66.8252 21.4206 66.2645C21.9208 65.4999 23.011 64.455 23.7036 64.1109C23.9858 63.9708 24.8067 63.7541 25.5121 63.6522C27.7951 63.3081 29.424 62.4289 30.3475 61.0144C31.0144 60.0204 32.1559 57.7649 32.9639 55.8534C34.3876 52.502 35.7215 50.8454 37.7737 49.826C38.338 49.5456 38.71 49.3162 38.5945 49.3162C38.1456 49.3162 31.8224 51.5973 29.4368 52.6294C28.616 52.9735 25.7558 54.7703 25.0632 55.3565C24.7682 55.6113 24.2551 56.2485 23.9088 56.7837C23.0367 58.1854 22.6262 59.4852 22.3825 61.6133C22.2799 62.5945 22.1517 63.563 22.1132 63.7796C22.0106 64.2639 21.536 65.2068 21.1769 65.6274L20.9076 65.9459L20.9717 65.2451C20.9973 64.8628 21.0615 63.7286 21.1 62.7474C21.2923 57.7776 22.5108 51.5973 24.2936 46.5892C24.6143 45.7227 24.9477 44.8434 25.0632 44.6395C25.371 44.0279 26.8588 42.7408 27.731 42.3203C28.6416 41.8743 29.1033 41.8361 31.1042 41.989C32.4509 42.0909 33.6565 41.8998 34.5672 41.441C35.17 41.1479 37.1067 39.211 38.5432 37.4652C39.2743 36.5859 40.3517 35.4008 40.9545 34.8146C42.173 33.6423 43.1349 33.1198 44.6868 32.7885C45.1871 32.6866 45.6231 32.5719 45.6616 32.5336C45.8925 32.2915 36.8117 33.1071 35.5804 33.4511C34.2081 33.8334 32.3996 34.4324 31.9122 34.6745C31.194 35.044 29.8344 36.3693 29.2572 37.2741C28.9751 37.7201 28.462 38.765 28.1414 39.5933C27.8079 40.4216 27.3718 41.3136 27.1794 41.5812C26.8331 42.0654 25.7814 43.0467 25.7814 42.881C25.7814 42.8428 26.0892 42.1164 26.474 41.2881C27.7438 38.4846 30.0909 34.4961 32.0405 31.7945C33.0409 30.431 35.1443 27.806 35.4778 27.5129C35.8883 27.1561 36.9528 26.8757 38.1584 26.7993C39.223 26.7355 39.4026 26.761 40.5056 27.1306C41.8908 27.6021 43.4427 27.806 44.5714 27.6403C45.559 27.5001 47.3546 26.761 49.83 25.4867C50.8946 24.9388 52.3311 24.2761 53.0365 24.0085C54.2806 23.537 54.3576 23.5243 56.0763 23.5243C57.0382 23.5116 57.8078 23.4861 57.7821 23.4606C57.6923 23.3841 55.2554 22.9381 52.2798 22.4666C49.5222 22.0206 49.1246 21.9824 46.5594 21.9951C43.866 21.9951 43.7762 21.9951 42.9297 22.3392C41.3136 22.9763 40.5056 23.4861 39.1717 24.7349C37.9019 25.9455 37.6198 26.1494 36.645 26.5571L36.1448 26.761L36.7861 26.0219C38.9921 23.4861 43.5197 19.6249 47.0725 17.2165C48.8296 16.0314 49.3555 15.8657 51.1768 15.8785C52.6517 15.8912 53.2033 16.0441 54.3063 16.7068C55.8197 17.637 57.8334 18.1085 59.2314 17.8536C60.4499 17.637 62.874 17.0126 63.9899 16.643C64.5157 16.4646 65.6829 16.1588 66.6064 15.9804C67.9659 15.7128 68.4533 15.6618 69.2357 15.7383C70.1207 15.8147 71.1083 16.0186 71.7624 16.2607C71.9419 16.3245 71.9804 16.3117 71.8906 16.2225C71.7111 16.0441 68.5559 14.859 65.5418 13.8396C62.8227 12.9348 60.1036 12.3486 58.5517 12.3359C57.4486 12.3359 56.0121 12.629 55.0758 13.0495C54.6911 13.2279 53.7548 13.7631 52.998 14.2601C52.2413 14.7443 51.5102 15.1776 51.3692 15.2158C50.792 15.3815 49.907 15.5089 49.9711 15.407C50.1635 15.0884 54.845 12.6927 56.6278 12.0046L57.7821 11.5586L59.7958 11.584C61.9121 11.6095 62.3225 11.5458 63.7975 10.9979C64.5927 10.7048 64.862 10.5009 66.2857 9.12463C67.8889 7.56998 69.3511 5.72224 71.6726 2.25613C72.5832 0.918106 72.8013 0.370155 71.9932 1.45332C71.7752 1.75915 71.198 2.29436 70.7235 2.65116C70.0309 3.16088 69.5563 3.37752 68.2481 3.79803C67.3631 4.09113 66.0805 4.44793 65.4135 4.60085C63.836 4.9704 62.1814 5.51835 61.5016 5.91338C60.8603 6.29568 60.078 7.18769 59.0904 8.66589C58.0258 10.2843 57.128 10.9342 53.5367 12.7182C50.7663 14.0944 48.5603 15.356 46.4696 16.7705C45.5975 17.3439 44.8921 17.7899 44.8921 17.7517C44.8921 17.7135 45.0844 17.4331 45.3281 17.14C45.636 16.7705 46.1618 16.4009 47.0725 15.9294C48.7142 15.0756 49.3427 14.5914 50.0866 13.6357C50.8561 12.6417 51.087 12.0938 51.5487 10.2078C51.9463 8.60217 52.1387 6.88186 52.267 3.82352C52.3054 2.88054 52.3696 1.6572 52.4081 1.10925C52.4594 0.459351 52.4337 0.128036 52.3439 0.128036C52.267 0.128036 52.2028 0.357407 52.2028 0.625015Z" fill="#C1C1C1"/>
<path opacity="0.8" d="M130.145 2.35812C130.389 9.06097 130.94 12.0301 132.249 13.7886C133.044 14.8718 133.903 15.5344 135.519 16.3373C136.378 16.7705 136.981 17.1656 137.353 17.5606C137.648 17.8792 137.866 18.1595 137.841 18.185C137.815 18.2105 137.276 17.8919 136.661 17.4841C134.66 16.1589 132.005 14.6679 129.17 13.2917C125.028 11.2783 124.181 10.6793 123.078 8.98451C122.039 7.39163 121.334 6.69077 120.269 6.19379C119.358 5.77326 117.229 5.12337 115.767 4.84302C114.69 4.62639 112.676 3.97649 111.932 3.60694C111.573 3.42854 110.855 2.86784 110.329 2.34538C109.79 1.82291 109.341 1.40239 109.316 1.40239C109.226 1.40239 110.996 3.87455 112.638 6.06635C114.626 8.72965 116.537 10.6029 117.948 11.2783C119.423 11.9919 120.346 12.1448 122.475 12.0556C124.207 11.9791 124.361 11.9919 125.271 12.2977C126.554 12.7182 128.927 13.8141 130.863 14.8591C132.71 15.853 132.903 15.9932 132.184 15.8785C131.107 15.6874 130.722 15.5217 129.44 14.7061C127.695 13.5975 126.977 13.2789 125.476 12.9731C124.54 12.7819 124.001 12.7437 123.283 12.8074C121.513 12.9604 119.038 13.4956 116.819 14.2219C113.638 15.2541 109.931 16.5921 109.931 16.7196C109.931 16.7705 110.085 16.7578 110.291 16.6813C110.906 16.4392 112.497 16.1843 113.33 16.1843C114.369 16.1843 116.357 16.5794 118.461 17.2038C123.694 18.7457 124.989 18.7457 128.106 17.191C129.619 16.4265 129.696 16.401 130.863 16.3373C131.543 16.3118 132.479 16.35 133.005 16.4392C133.877 16.5794 134.095 16.6941 135.827 17.8409C137.982 19.2682 140.201 20.9502 142.086 22.5814C143.959 24.1997 146.921 27.0669 146.767 27.1179C146.408 27.2326 145.139 26.4552 144.061 25.4485C142.599 24.085 141.714 23.5116 140.265 22.9382L139.11 22.4922H136.032C133.198 22.4922 132.749 22.5304 130.325 22.8999C126.208 23.5498 124.425 23.8811 124.425 23.9958C124.425 24.0596 124.54 24.0723 124.681 24.0213C125.079 23.8939 127.362 23.9321 128.093 24.0723C129.016 24.2507 130.966 25.0535 133.21 26.1622C134.275 26.6846 135.686 27.3345 136.353 27.6021C137.558 28.0991 137.597 28.0991 139.239 28.0864C140.765 28.0864 141.021 28.0481 142.189 27.6658C143.664 27.1943 145.01 27.1179 146.267 27.4492C147.357 27.7423 147.511 27.857 148.602 29.1185C150.538 31.3486 152.616 34.2413 154.322 37.0447C155.335 38.7013 157.708 43.3016 157.605 43.4035C157.567 43.4417 157.169 43.1104 156.72 42.6644C156.028 41.989 155.823 41.6832 155.463 40.7785C154.437 38.1916 153.732 37.083 152.347 35.9361C150.769 34.6108 147.986 33.808 143.523 33.3875C140.355 33.0944 136.43 32.9287 137.61 33.1326C138.546 33.311 139.777 33.7315 140.457 34.1138C141.227 34.5598 142.907 36.1909 144.369 37.9113C145.921 39.7463 147.806 41.543 148.55 41.8998C148.884 42.0655 149.628 42.2821 150.218 42.3968C151.154 42.5625 151.487 42.5752 152.706 42.435C153.95 42.2949 154.207 42.2949 154.822 42.4733C155.72 42.7281 156.579 43.2761 157.528 44.1808C158.183 44.8053 158.336 45.0474 158.785 46.1815C160.209 49.8388 161.389 54.3625 161.941 58.2492C162.261 60.5047 162.518 63.5121 162.518 64.9903V66.3283L162.261 66.0097C161.607 65.1941 161.363 64.3913 161.107 62.3397C160.979 61.2438 160.773 60.0205 160.645 59.6382C160.286 58.4276 159.452 56.9749 158.619 56.0956C158.208 55.6623 155.566 53.9675 154.309 53.3304C153.54 52.9481 148.242 50.9602 146.485 50.4122C145.883 50.2211 145.151 49.9789 144.856 49.8897C143.984 49.6094 144.215 49.8515 145.331 50.374C147.357 51.3297 148.73 53.0628 150.372 56.771C151.487 59.2814 152.744 61.4987 153.45 62.2123C153.835 62.5946 154.437 63.0023 155.117 63.3209C156.143 63.8052 156.592 63.9326 158.503 64.2257C159.927 64.4551 161.248 65.4108 162.197 66.889C162.479 67.335 162.518 67.5516 162.518 68.4564C162.518 70.5717 162.018 74.9171 161.479 77.6569C160.825 80.9701 159.645 84.9077 158.439 87.8641C157.644 89.7883 156.451 92.3878 156.348 92.3878C156.195 92.3878 155.977 90.9351 155.977 89.9539C155.977 89.1384 156.079 88.6541 156.554 87.1504C157.31 84.7675 157.516 83.7226 157.516 82.2953C157.503 79.5428 157.272 78.8547 155.387 75.8473C154.566 74.5221 153.835 73.5663 152.77 72.4067C150.846 70.2914 145.729 65.1814 145.639 65.2706C145.6 65.3216 145.857 65.7039 146.216 66.1371C146.909 67.0037 147.627 68.2652 147.947 69.2082C148.307 70.3169 148.576 73.4007 148.473 75.567C148.384 77.8098 148.576 81.4798 148.871 82.6394C149.281 84.2705 150.551 85.8889 152.385 87.1122C153.104 87.5837 153.847 88.1699 154.053 88.412C154.976 89.5206 155.566 91.2537 155.605 92.9613C155.63 93.9043 155.63 93.9043 154.822 95.2805C152.206 99.7533 149.166 103.704 145.626 107.259C143.766 109.119 141.355 111.299 141.265 111.197C141.163 111.107 141.727 109.234 142.022 108.661C142.163 108.368 142.984 107.246 143.843 106.189C145.446 104.175 146.421 102.659 146.883 101.435C147.396 100.097 147.768 98.3771 147.768 97.3704C147.768 96.198 146.909 91.8526 146.408 90.4764C145.844 88.909 142.997 82.5247 141.906 80.3456C140.868 78.294 140.342 77.5804 140.932 79.0076C141.74 81.0083 141.83 83.2383 141.214 85.6595C140.726 87.6219 140.483 88.3101 139.47 90.7185C138.084 94.0062 136.866 97.9693 136.866 99.1926C136.866 100.085 137.315 101.805 137.841 102.939C138.072 103.462 138.623 104.315 139.059 104.851C140.098 106.125 140.444 106.902 140.611 108.304C140.739 109.234 140.726 109.642 140.56 110.661C140.431 111.464 140.265 111.987 140.124 112.165C139.521 112.815 135.532 115.567 133.018 117.046C130.761 118.384 126.297 120.537 124.399 121.225C124.207 121.289 124.168 121.455 124.168 122.079V122.844L124.848 122.576C130.761 120.27 136.673 116.816 141.791 112.675C142.843 111.834 143.24 111.592 144.036 111.337C145.511 110.853 146.691 110.687 148.037 110.776C149.538 110.865 150.128 111.069 151.629 112.025C153.001 112.891 153.809 113.223 155.399 113.554C156.772 113.834 157.823 113.86 158.862 113.618C160.183 113.299 163.89 111.923 166.366 110.802C168.623 109.795 170.944 108.954 172.778 108.495C173.843 108.227 176.69 108.304 177.845 108.635C179.974 109.247 179.576 108.954 176.819 107.871C173.561 106.584 166.648 104.277 165.237 103.997C163.185 103.589 159.593 103.194 158.708 103.27C157.746 103.372 156.028 103.857 154.732 104.392C153.411 104.927 152.103 105.806 150.012 107.552C147.986 109.221 147.422 109.591 146.229 109.961C144.305 110.547 144.305 110.572 146.242 108.673C150.154 104.812 153.514 100.454 156.233 95.701C156.823 94.6816 157.387 93.7513 157.503 93.6112C157.862 93.2034 159.401 92.3751 160.401 92.0565C161.556 91.6997 162.069 91.6742 163.608 91.9546C164.596 92.1457 164.916 92.1457 165.968 92.0055C167.43 91.8271 168.597 91.4194 169.495 90.8077C170.534 90.0941 172.625 88.3101 174.536 86.5133C176.921 84.2578 179.153 82.6012 180.5 82.066C181.603 81.6327 182.962 81.3014 183.655 81.3014C183.873 81.3014 184.065 81.2377 184.065 81.1612C184.065 80.9955 181.859 81.0593 176.755 81.3778C173.086 81.6072 171.983 81.7601 169.38 82.461C167.058 83.0727 166.481 83.3275 165.147 84.3215C163.646 85.4301 162.492 86.7554 161.107 88.96C160.44 90.0176 159.658 91.1263 159.375 91.4194C158.914 91.8909 158.029 92.5917 158.029 92.4898C158.029 92.4643 158.349 91.7379 158.747 90.8587C161.594 84.5126 163.287 78.0646 163.826 71.4382L163.98 69.514L164.621 68.8387C165.596 67.8065 165.955 67.6408 167.34 67.5261C168.828 67.4242 170.021 66.9145 170.893 66.0352C171.56 65.3598 172.907 63.0915 174.125 60.6066C175.728 57.3572 176.985 55.7898 178.653 55.0124C179.102 54.8086 179.435 54.6174 179.409 54.5919C179.217 54.4008 172.201 56.771 170.983 57.4336C169.508 58.2492 167.879 59.4215 167.494 59.9568C166.263 61.6261 165.737 62.8877 165.109 65.7166C164.762 67.2458 164.288 68.5583 164.083 68.5583C164.031 68.5583 163.993 67.3095 163.98 65.7803C163.967 62.6965 163.813 60.836 163.339 57.7267C162.826 54.4135 161.902 50.6798 160.876 47.8254L160.504 46.7932L160.735 46.0413C161.043 45.0729 161.697 44.0152 162.287 43.5437C162.633 43.2633 163.069 43.0977 163.852 42.932C165.378 42.6134 166.596 41.7979 167.135 40.7657C167.469 40.1285 168.251 37.5417 168.559 36.0763C168.828 34.7765 169.444 32.865 169.854 32.0495C170.175 31.425 171.316 30.3036 171.868 30.087C172.086 29.9851 172.265 29.8704 172.265 29.8067C172.265 29.4499 165.647 32.7758 164.403 33.757C162.608 35.1715 162.094 35.7704 161.646 36.9046C161.235 37.9622 160.889 40.0266 161.03 40.5746C161.068 40.7402 161.107 41.4793 161.12 42.2312C161.133 43.5692 161.12 43.6329 160.658 44.5504C160.401 45.0729 160.145 45.4934 160.094 45.4934C160.042 45.4934 159.811 45.0219 159.568 44.4357C158.144 40.9314 155.387 36.1145 152.873 32.6866C151.924 31.4123 151.693 30.6732 151.68 28.9911V27.7041L152.347 26.5699C153.065 25.3339 153.54 23.8684 153.54 22.9254C153.54 22.2118 152.834 19.8543 152.052 17.9684C151.128 15.7256 150.808 14.3111 150.885 12.9349C150.923 12.2977 151.039 11.5459 151.154 11.24C151.257 10.9469 151.308 10.7048 151.257 10.7048C151.205 10.7048 151.064 10.9469 150.949 11.24C148.602 17.2548 148.14 18.7839 147.768 21.6639C147.64 22.6196 147.652 22.8617 147.896 23.7665C148.255 25.1555 148.756 26.1367 149.756 27.3345C150.218 27.8952 150.718 28.5579 150.846 28.8127C151.115 29.3224 151.423 30.4311 151.334 30.5203C151.295 30.5585 150.641 29.8576 149.871 28.9656C147.242 25.92 144.061 22.9382 140.393 20.0965C138.11 18.3379 137.315 17.0254 137.392 15.1649C137.482 12.8584 137.43 11.788 137.199 11.1126C136.904 10.2461 135.84 8.9208 133.89 6.97111C131.864 4.9577 131.069 3.90003 130.658 2.65121C130.479 2.116 130.325 1.51708 130.312 1.31319C130.312 1.12205 130.248 0.841698 130.184 0.701523C130.119 0.535866 130.094 1.14753 130.145 2.35812Z" fill="#C1C1C1"/>
</g>
<defs>
<clipPath id="clip0_10050_3541">
<rect width="184" height="146" fill="white"/>
</clipPath>
</defs>
</svg>
